HIERARCHY
ROOT hip
{
	OFFSET 0.000000 0.000000 0.000000 
	CHANNELS 6 Xposition Yposition Zposition Xrotation Zrotation Yrotation
	JOINT abdomen
	{
		OFFSET 0.000000 3.402643 0.000000 
		CHANNELS 3 Xrotation Zrotation Yrotation
		JOINT chest
		{
			OFFSET 0.000000 8.438565 -0.680529 
			CHANNELS 3 Xrotation Zrotation Yrotation
			JOINT neck
			{
				OFFSET 0.000000 10.207942 -0.272212 
				CHANNELS 3 Xrotation Zrotation Yrotation
				JOINT head
				{
					OFFSET 0.000000 3.130431 0.000000 
					CHANNELS 3 Xrotation Zrotation Yrotation
					End Site
					{
						OFFSET 0.000000 3.130435 0.000000 
					}
				}
			}
			JOINT lCollar
			{
				OFFSET 3.470700 6.669187 -0.816635 
				CHANNELS 3 Yrotation Zrotation Xrotation
				JOINT lShldr
				{
					OFFSET 3.198488 0.000000 0.000000 
					CHANNELS 3 Zrotation Yrotation Xrotation
					JOINT lForeArm
					{
						OFFSET 10.139888 0.000000 0.000000 
						CHANNELS 3 Yrotation Zrotation Xrotation
						JOINT lHand
						{
							OFFSET 8.370511 0.000000 0.000000 
							CHANNELS 3 Zrotation Yrotation Xrotation
							End Site
							{
								OFFSET 4.083176 0.000000 0.000000 
							}
						}
					}
				}
			}
			JOINT rCollar
			{
				OFFSET -3.470700 6.669187 -0.816635 
				CHANNELS 3 Yrotation Zrotation Xrotation
				JOINT rShldr
				{
					OFFSET -3.198488 0.000000 0.000000 
					CHANNELS 3 Zrotation Yrotation Xrotation
					JOINT rForeArm
					{
						OFFSET -10.139888 0.000000 0.000000 
						CHANNELS 3 Yrotation Zrotation Xrotation
						JOINT rHand
						{
							OFFSET -8.370511 0.000000 0.000000 
							CHANNELS 3 Zrotation Yrotation Xrotation
							End Site
							{
								OFFSET -4.083176 0.000000 0.000000 
							}
						}
					}
				}
			}
		}
	}
	JOINT lThigh
	{
		OFFSET 5.308129 -1.633274 1.361059 
		CHANNELS 3 Xrotation Zrotation Yrotation
		JOINT lShin
		{
			OFFSET -2.041588 -20.007561 0.000000 
			CHANNELS 3 Xrotation Zrotation Yrotation
			JOINT lFoot
			{
				OFFSET 0.000000 -19.190928 -1.224953 
				CHANNELS 3 Xrotation Yrotation Zrotation
				End Site
				{
					OFFSET 0.000000 -2.449906 4.627600 
				}
			}
		}
	}
	JOINT rThigh
	{
		OFFSET -5.308129 -1.633274 1.361059 
		CHANNELS 3 Xrotation Zrotation Yrotation
		JOINT rShin
		{
			OFFSET 2.041588 -20.007561 0.000000 
			CHANNELS 3 Xrotation Zrotation Yrotation
			JOINT rFoot
			{
				OFFSET 0.000000 -19.190928 -1.224953 
				CHANNELS 3 Xrotation Yrotation Zrotation
				End Site
				{
					OFFSET 0.000000 -2.449906 4.627600 
				}
			}
		}
	}
}
MOTION
Frames: 10
Frame Time: 0.016667
0.321768 51.404068 -0.402765 6.389705 0.175318 4.160196 0.000000 0.000000 0.000000 1.786151 -0.703124 0.078119 -9.703663 -1.200037 -2.490915 22.366898 -1.365772 -2.608310 -3.039340 9.833233 0.583613 -10.112600 -20.274378 -32.116497 -5.521044 -0.724697 2.439926 5.474099 -10.371710 32.721245 2.993340 -9.940630 0.594924 5.525127 15.504721 -39.229572 -3.123159 0.816082 2.418494 -0.006365 6.416720 35.376968 -8.803568 6.040201 8.438654 12.021430 -4.109396 -3.299336 -8.765235 -0.661314 -1.762648 -10.467649 -14.216026 -12.807756 12.372913 4.355404 9.842300 -6.525503 0.118356 5.282974 
0.345678 51.400169 -0.441905 6.066525 0.360682 3.427851 0.000000 0.000000 0.000000 2.390766 -0.966795 0.107407 -9.677976 -1.044201 -2.129265 22.516100 -1.424714 -2.217568 -3.034540 9.822017 0.612445 -10.469044 -19.803665 -31.363894 -8.367240 -0.682308 2.444520 4.878351 -10.444475 31.973833 3.008339 -9.948759 0.625424 5.271769 16.180981 -37.613476 -3.133740 0.835184 2.418469 1.483862 8.609142 34.224514 -8.248091 5.884912 8.911314 11.670238 -4.111386 -2.923517 -8.619132 -0.637192 -1.781855 -10.689549 -14.337441 -12.339135 12.885848 4.354750 10.280059 -6.665837 0.185643 5.091497 
0.457242 51.383057 -0.585432 6.283948 0.214359 3.847702 0.000000 0.000000 0.000000 2.587181 -0.693359 0.058589 -9.659923 -1.248706 -2.608079 23.072729 -1.580268 -2.706203 -3.054175 9.831575 0.612433 -10.597965 -22.334206 -29.665770 -13.435289 -0.573033 2.479106 2.632277 -11.263585 33.792725 2.988703 -9.939203 0.625433 5.030587 16.755623 -34.932281 2.459976 0.768667 2.419792 2.293227 8.860113 31.505651 -8.872212 5.845380 8.607996 11.992719 -4.111709 -3.200667 -8.583597 -0.718709 -1.540015 -11.054186 -14.393457 -12.110106 12.916634 4.294015 9.449229 -6.501650 0.400434 5.450670 
0.568798 51.365936 -0.728951 6.489450 0.068171 4.257821 0.000000 0.000000 0.000000 2.783133 -0.410156 0.009765 -9.638696 -1.452981 -3.077163 23.632017 -1.735581 -3.194851 -3.073809 9.841135 0.612421 -10.819018 -24.863451 -27.919622 -18.504068 -0.462335 2.518954 0.357757 -12.018109 35.635960 2.970774 -9.929142 0.635048 4.823083 17.334761 -32.237743 8.044117 0.696461 2.436721 3.099625 9.152868 28.780405 -9.501471 5.790711 8.306294 12.338791 -4.132442 -3.471345 -8.555781 -0.819853 -1.286096 -11.421870 -14.435598 -11.839563 12.934416 4.247139 8.579894 -6.358393 0.617706 5.810450 
0.613788 51.364803 -0.890478 6.427563 0.155823 4.238319 0.000000 0.000000 0.000000 3.397855 -0.683594 0.048825 -9.622772 -1.326547 -2.793802 23.591370 -1.687288 -2.901720 -3.070698 9.829381 0.652529 -10.583664 -27.025969 -24.395075 -25.283890 -0.373867 2.569649 -1.484000 -12.288773 34.465160 2.985773 -9.937276 0.663862 5.954034 18.443775 -30.394136 16.387333 0.576940 2.491979 3.402239 8.615664 26.926247 -9.527906 5.632065 8.338270 12.140843 -4.131825 -3.544448 -8.247952 -0.784943 -1.223246 -11.764612 -14.545181 -11.353796 13.296412 4.217839 8.029573 -6.302513 0.417220 5.688297 
0.658778 51.363667 -1.052003 6.376101 0.253218 4.218796 0.000000 0.000000 0.000000 4.012380 -0.947265 0.078114 -9.605168 -1.209776 -2.510443 23.561148 -1.648694 -2.598828 -3.075648 9.818047 0.681356 -10.493617 -29.205444 -20.811481 -32.075230 -0.296598 2.640098 -3.312057 -12.591015 33.302010 2.991019 -9.945513 0.694366 7.134881 19.520584 -28.511621 24.722290 0.467513 2.563575 3.712529 8.090654 25.064688 -9.564368 5.473735 8.360768 11.947733 -4.120223 -3.567954 -7.947702 -0.769015 -1.158865 -12.097976 -14.635746 -10.859076 13.635246 4.197702 7.459070 -6.272495 0.251136 5.560864 
0.717358 51.342899 -1.277265 6.845703 0.000000 4.482422 0.000000 0.000000 0.000000 4.188829 -0.732422 0.048824 -9.602635 -1.229214 -2.588552 23.086348 -1.248607 -2.705925 -3.077455 9.827287 0.692630 -10.524906 -32.964722 -18.130457 -37.929859 -0.227719 2.712230 -5.136862 -12.886075 32.593391 2.981135 -9.935865 0.694371 6.605675 20.104397 -26.024349 33.607746 0.376226 2.668042 2.467985 7.462814 22.040592 -10.657687 5.591060 8.017076 12.506968 -4.123326 -3.453638 -7.929183 -0.819550 -1.021033 -13.076057 -14.452764 -10.403831 14.035597 4.138974 6.528757 -6.182964 0.291437 5.320977 
0.775936 51.322144 -1.502522 7.312168 -0.262768 4.746133 0.000000 0.000000 0.000000 4.365146 -0.517578 0.009765 -9.589831 -1.258402 -2.666874 22.610529 -0.858340 -2.812916 -3.089030 9.836410 0.702232 -10.784649 -36.718655 -15.320905 -43.777439 -0.167939 2.786855 -6.957320 -13.204645 31.894791 2.972958 -9.925711 0.703982 6.097431 20.713724 -23.541353 42.488628 0.305964 2.788109 1.263035 6.765290 19.048225 -11.764924 5.691679 7.672901 13.077947 -4.112453 -3.358952 -7.932354 -0.844492 -0.903937 -14.039811 -14.233748 -9.953788 14.447402 4.071046 5.607605 -6.101100 0.342044 5.075173 
0.809978 51.336491 -1.677005 7.449862 -0.204779 3.095719 0.000000 0.000000 0.000000 4.843410 -0.664063 0.029295 -9.573387 -0.995444 -2.070678 22.416960 -1.463860 -2.100421 -3.102050 9.825470 0.721443 -12.202770 -38.629448 -11.590272 -49.699387 -0.096461 2.877030 -7.246085 -11.820721 31.785467 2.976496 -9.934461 0.723195 6.384589 26.081533 -24.047028 47.487961 0.227929 2.852999 0.778976 8.074074 20.293573 -11.694940 5.817270 8.282472 12.627993 -4.060713 -2.502764 -7.638049 -0.840392 -1.059667 -15.389349 -13.553202 -8.579403 15.192745 3.954347 3.448966 -5.736993 0.438138 4.034836 
0.844012 51.350838 -1.851491 7.593961 -0.146438 1.445308 0.000000 0.000000 0.000000 5.331612 -0.820312 0.029294 -9.551464 -0.732179 -1.474739 22.207855 -2.079486 -1.368413 -3.105427 9.824413 0.740660 -13.814446 -40.464413 -7.700587 -55.627598 -0.055572 2.977199 -7.530774 -10.432669 31.671324 2.971987 -9.942829 0.753706 6.643726 31.447363 -24.529428 52.481499 0.166851 2.929878 0.319727 9.390032 21.538881 -11.618345 5.955130 8.872580 12.192798 -4.025199 -1.648989 -7.364336 -0.835713 -1.182956 -16.702663 -12.825980 -7.217873 15.941965 3.856040 1.311289 -5.379641 0.511686 2.986640 
